<svg xmlns="http://www.w3.org/2000/svg" viewBox="0 0 397 106"><defs><path id="a" d="M15.2559 89.3143h128.376V105H15.2559z"/><path id="b" d="M173.8033 91.1538h36.0735V105h-36.0735z"/></defs><g fill="none" fill-rule="evenodd"><path fill="#005EB8" d="M1.1264 43.3768h107.0003V0H1.1264z"/><path fill="#FFFFFE" d="M11.529 4.1694h11.7003l7.15 24.2277h.1313l4.8095-24.2277h8.8407l-7.4102 34.9101H25.1791l-7.28-24.0985h-.1289l-4.8108 24.0985H4.1175L11.529 4.1694M47.5411 4.1694h9.3613l-2.7308 13.4161h11.0508l2.7321-13.4161h9.36l-7.2813 34.9101h-9.36l3.1187-14.8506H52.7411l-3.1187 14.8506H40.39l7.1511-34.9101M101.8866 12.1157c-1.821-.7824-4.2901-1.5637-7.6705-1.5637-3.772 0-6.7606.5204-6.7606 3.387 0 4.9493 13.52 2.9957 13.52 13.6781 0 9.6392-8.9708 12.1132-17.0317 12.1132-3.5105 0-7.6705-.7812-10.7893-1.8232l2.209-7.0347c1.8196 1.1712 5.5904 1.955 8.5803 1.955 2.8609 0 7.4114-.5217 7.4114-4.1682 0-5.6015-13.5213-3.5174-13.5213-13.2882 0-8.9871 7.9308-11.7232 15.6013-11.7232 4.2902 0 8.3213.39 10.6616 1.5636l-2.2102 6.9043"/><path fill="#231F20" d="M.925 57.445H5.265v12.5145c0 3.6954 1.1765 6.118 4.4942 6.118 3.3153 0 4.493-2.4226 4.493-6.118V57.445h4.339v13.85c0 5.807-3.2853 8.1983-8.832 8.1983-5.5492 0-8.8344-2.3913-8.8344-8.1984v-13.85M23.0804 63.1279h3.936v2.1731h.0613c1.3016-1.832 3.07-2.5455 5.2388-2.5455 3.7808 0 5.424 2.6709 5.424 6.2723v10.093H33.588v-8.5406c0-1.955-.0325-4.5958-2.6982-4.5958-3.0049 0-3.6557 3.2616-3.6557 5.3105v7.826h-4.1537v-15.993M42.1058 79.1209h4.1525v-15.993h-4.1525v15.993Zm0-18.9122h4.1525v-3.975h-4.1525v3.975ZM48.8602 63.1279h4.463l3.9672 11.6455h.0625l3.8422-11.6455h4.155l-5.8909 15.993h-4.6794l-5.9196-15.993M77.8664 69.5557c-.1251-2.0176-1.0537-3.7569-3.379-3.7569-2.3241 0-3.5018 1.6151-3.6882 3.7569h7.0672Zm2.7884 8.6648c-1.518.8377-3.2552 1.2728-5.4854 1.2728-5.2688 0-8.3375-3.0434-8.3375-8.2924 0-4.6259 2.448-8.4454 7.4077-8.4454 5.9196 0 7.5929 4.0678 7.5929 9.6567H70.7992c.1864 2.5781 1.9836 4.0377 4.5567 4.0377 2.0137 0 3.7495-.746 5.2989-1.615v3.3856ZM85.1765 63.1279h3.6894v3.6327h.0601c.1877-1.4897 1.891-4.0051 4.3715-4.0051.403 0 .8373 0 1.2703.1241v4.192c-.373-.217-1.115-.341-1.8597-.341-3.3779 0-3.3779 4.222-3.3779 6.5205v5.8698h-4.1537v-15.993M106.6211 66.4822c-1.2715-.435-2.2014-.6834-3.7195-.6834-1.115 0-2.4492.4038-2.4492 1.7694 0 2.5467 7.2225.9317 7.2225 6.7086 0 3.7255-3.3153 5.2165-6.6956 5.2165-1.5794 0-3.1914-.2796-4.7094-.6834l.2478-3.4158c1.3015.652 2.6657 1.0558 4.0899 1.0558 1.0538 0 2.7283-.4037 2.7283-1.9574 0-3.1361-7.2212-.9931-7.2212-6.7688 0-3.4472 3.0061-4.9682 6.2613-4.9682 1.951 0 3.2226.3097 4.5242.5893l-.2791 3.1374M110.9876 79.1209h4.1525v-15.993h-4.1525v15.993Zm0-18.9122h4.1525v-3.975h-4.1525v3.975ZM120.8733 66.1713h-3.0687v-3.0434h3.0687v-3.1988l4.1525-1.3355v4.5343h3.6882v3.0434h-3.6882v7.4522c0 1.3668.3717 2.6408 1.9523 2.6408.7434 0 1.4568-.1567 1.8898-.435l.1252 3.2916c-.8673.2482-1.8285.3724-3.0687.3724-3.2552 0-5.0511-2.0189-5.0511-5.1864v-8.1356M138.1954 74.8035h.06l3.8447-11.6756h4.2151l-5.9822 15.8688c-1.3329 3.54-2.2928 7.0184-6.6318 7.0184-.9924 0-1.9836-.1555-2.946-.4351l.2803-3.0747c.527.1856 1.1151.2796 2.1376.2796 1.6745 0 2.697-1.1486 2.697-2.8577l-6.1061-16.7993h4.5868l3.8446 11.6756M157.7765 57.445h4.339v8.7576h8.678V57.445h4.339v21.6759h-4.339v-9.5025h-8.678v9.5025h-4.339V57.445M187.0919 76.2643c3.1926 0 4.0286-2.8577 4.0286-5.5286 0-2.4528-1.3016-4.7513-4.0286-4.7513-2.697 0-3.9986 2.36-3.9986 4.7513 0 2.6408.8373 5.5286 3.9986 5.5286Zm0-13.5088c4.742 0 8.3676 3.1988 8.3676 8.478 0 4.5957-3.0687 8.2598-8.3676 8.2598-5.2689 0-8.3376-3.664-8.3376-8.2598 0-5.2792 3.6256-8.478 8.3376-8.478ZM208.1923 66.4822c-1.2703-.435-2.2014-.6834-3.7182-.6834-1.1164 0-2.4492.4038-2.4492 1.7694 0 2.5467 7.2212.9317 7.2212 6.7086 0 3.7255-3.3153 5.2165-6.6956 5.2165-1.5794 0-3.1913-.2796-4.7094-.6834l.2478-3.4158c1.3015.652 2.6657 1.0558 4.0912 1.0558 1.0525 0 2.727-.4037 2.727-1.9574 0-3.1361-7.2212-.9931-7.2212-6.7688 0-3.4472 3.0061-4.9682 6.2613-4.9682 1.9511 0 3.2226.3097 4.5242.5893l-.279 3.1374M216.65 71.078c0 2.2659.8998 5.1863 3.6582 5.1863 2.727 0 3.5017-2.9831 3.5017-5.1863 0-2.143-.7434-5.0936-3.4404-5.0936-2.6645 0-3.7195 2.8578-3.7195 5.0936Zm-4.1838-7.9501h3.9673v2.2672h.0626c.9286-1.5537 2.5105-2.6396 4.9585-2.6396 4.8971 0 6.6955 3.9123 6.6955 8.3225 0 4.3788-1.7984 8.4153-6.7882 8.4153-1.767 0-3.2226-.4351-4.6806-2.2045h-.0613v8.3526h-4.1538V63.128ZM231.4917 79.1209h4.1537v-15.993h-4.1537v15.993Zm0-18.9122h4.1537v-3.975h-4.1537v3.975ZM241.3773 66.1713h-3.0687v-3.0434h3.0687v-3.1988l4.1525-1.3355v4.5343h3.6895v3.0434h-3.6895v7.4522c0 1.3668.3717 2.6408 1.9524 2.6408.7446 0 1.4567-.1567 1.891-.435l.124 3.2916c-.8674.2482-1.8285.3724-3.0688.3724-3.2552 0-5.051-2.0189-5.051-5.1864v-8.1356M257.6444 76.45c1.2716 0 2.264-.558 2.9135-1.4283.6821-.9004.8673-2.049.8673-3.293h-1.7971c-1.8585 0-4.618.311-4.618 2.7638 0 1.3668 1.1463 1.9574 2.6343 1.9574Zm-4.8658-12.4832c1.612-.7461 3.782-1.2113 5.548-1.2113 4.867 0 6.8807 2.0176 6.8807 6.7387v2.049c0 1.6151.0313 2.8264.0626 4.0064.03 1.2113.0926 2.3298.1852 3.5713h-3.657c-.155-.839-.155-1.8948-.1864-2.3913h-.0613c-.9612 1.7705-3.0374 2.7637-4.9272 2.7637-2.8209 0-5.5792-1.708-5.5792-4.7513 0-2.3913 1.1464-3.7894 2.727-4.5644 1.5807-.7762 3.6269-.9316 5.3615-.9316h2.2927c0-2.5782-1.1463-3.4472-3.5943-3.4472-1.7671 0-3.533.6834-4.9284 1.7393l-.124-3.5713ZM269.3886 79.1209h4.1525v-23.291h-4.1525zM287.3928 66.4822c-1.2703-.435-2.2002-.6834-3.7182-.6834-1.1164 0-2.4492.4038-2.4492 1.7694 0 2.5467 7.2212.9317 7.2212 6.7086 0 3.7255-3.3153 5.2165-6.6943 5.2165-1.5807 0-3.1926-.2796-4.7107-.6834l.2478-3.4158c1.3015.652 2.6657 1.0558 4.0912 1.0558 1.0537 0 2.727-.4037 2.727-1.9574 0-3.1361-7.2212-.9931-7.2212-6.7688 0-3.4472 3.0061-4.9682 6.2613-4.9682 1.951 0 3.2226.3097 4.5242.5893l-.2791 3.1374M312.2753 61.42c-1.3641-.5906-2.8822-.933-4.4003-.933-1.488 0-3.4104.6534-3.4104 3.0133 0 3.7581 9.484 2.1731 9.484 9.4398 0 4.7512-3.7495 6.5532-8.1198 6.5532-2.3554 0-3.4091-.3097-5.548-.8377l.403-3.9136c1.488.8076 3.1914 1.3355 4.8972 1.3355 1.642 0 3.8434-.8389 3.8434-2.7963 0-4.128-9.484-2.4214-9.484-9.5953 0-4.844 3.7496-6.6133 7.5629-6.6133 1.8585 0 3.5943.2482 5.1762.7761l-.4042 3.5713M332.1693 79.1209h-3.9373v-2.1744h-.0625c-1.269 1.5536-3.0675 2.5468-5.2363 2.5468-3.7821 0-5.424-2.671-5.424-6.2723V63.1279h4.1524v8.5394c0 1.9562.0313 4.597 2.697 4.597 3.0061 0 3.657-3.2615 3.657-5.3117v-7.8247h4.1537v15.993M345.9259 66.4822c-1.2716-.435-2.2014-.6834-3.7195-.6834-1.1151 0-2.4492.4038-2.4492 1.7694 0 2.5467 7.2224.9317 7.2224 6.7086 0 3.7255-3.3165 5.2165-6.6955 5.2165-1.5807 0-3.1926-.2796-4.7095-.6834l.2478-3.4158c1.3016.652 2.6658 1.0558 4.09 1.0558 1.0537 0 2.7283-.4037 2.7283-1.9574 0-3.1361-7.2225-.9931-7.2225-6.7688 0-3.4472 3.0074-4.9682 6.2613-4.9682 1.9524 0 3.2239.3097 4.5255.5893l-.2791 3.1374M359.6825 66.4822c-1.2703-.435-2.2014-.6834-3.7195-.6834-1.1151 0-2.4492.4038-2.4492 1.7694 0 2.5467 7.2224.9317 7.2224 6.7086 0 3.7255-3.3152 5.2165-6.6955 5.2165-1.5794 0-3.1914-.2796-4.7095-.6834l.2478-3.4158c1.3016.652 2.6657 1.0558 4.09 1.0558 1.0537 0 2.7283-.4037 2.7283-1.9574 0-3.1361-7.2213-.9931-7.2213-6.7688 0-3.4472 3.0062-4.9682 6.2613-4.9682 1.9511 0 3.2227.3097 4.5242.5893l-.279 3.1374M373.9672 69.5557c-.124-2.0176-1.0538-3.7569-3.3778-3.7569s-3.503 1.6151-3.6882 3.7569h7.066Zm2.7896 8.6648c-1.518.8377-3.2552 1.2728-5.4854 1.2728-5.2688 0-8.3375-3.0434-8.3375-8.2924 0-4.6259 2.448-8.4454 7.4077-8.4454 5.9183 0 7.5929 4.0678 7.5929 9.6567h-11.0333c.1852 2.5781 1.9836 4.0377 4.5555 4.0377 2.0149 0 3.7495-.746 5.3001-1.615v3.3856ZM379.8831 63.1279h4.896l3.1311 5.2165 3.0675-5.2165h4.4015l-4.7732 7.6078L396 79.1209h-4.9597l-3.5643-5.9626-3.5956 5.9626h-4.5555l5.4853-8.3852-4.927-7.6078"/><path fill="#005EB8" d="M1.1264 90.3889H4.677l5.4916 10.7978h.0413V90.3889h2.766v14.4381H9.4463L3.9348 94.0291h-.0426v10.7979H1.1264V90.3889M16.1808 90.3889h2.8897v5.8322h5.7807v-5.8322h2.8898v14.4381h-2.8898v-6.33h-5.7807v6.33h-2.8897V90.3889M38.8294 93.036c-.9074-.3925-1.9199-.6194-2.9298-.6194-.9912 0-2.2715.4338-2.2715 2.0063 0 2.5029 6.3164 1.447 6.3164 6.2886 0 3.1637-2.498 4.3637-5.4078 4.3637-1.5694 0-2.2715-.2069-3.6957-.558l.2678-2.607c.9912.538 2.1276.8904 3.2627.8904 1.0938 0 2.5593-.5593 2.5593-1.8622 0-2.7511-6.3163-1.6138-6.3163-6.3914 0-3.2277 2.4967-4.4051 5.036-4.4051 1.239 0 2.3942.1655 3.448.5166l-.2691 2.3775M48.312 90.3889h8.0097v2.2759h-5.1199v3.5563h4.8721v2.2759h-4.872v6.33H48.312V90.3889M63.2613 102.9234c2.125 0 2.682-1.9022 2.682-3.6803 0-1.6352-.866-3.1663-2.682-3.1663-1.7971 0-2.6632 1.5725-2.6632 3.1663 0 1.7568.557 3.6803 2.6632 3.6803Zm0-8.997c3.1576 0 5.573 2.1304 5.573 5.6465 0 3.0621-2.0437 5.5023-5.573 5.5023-3.5105 0-5.5542-2.4402-5.5542-5.5023 0-3.5161 2.4154-5.6466 5.5542-5.6466ZM80.77 104.827h-2.622v-1.4471h-.0413c-.8473 1.0332-2.0437 1.6953-3.4892 1.6953-2.518 0-3.6131-1.7793-3.6131-4.1781v-6.7225h2.767v5.688c0 1.3028.0214 3.0608 1.796 3.0608 2.0037 0 2.4354-2.1705 2.4354-3.5361v-5.2127H80.77v10.6524M83.6209 94.1746h2.6231v1.4483h.04c.8686-1.2213 2.045-1.6966 3.4893-1.6966 2.5193 0 3.613 1.7781 3.613 4.1782v6.7225h-2.767v-5.688c0-1.3029-.02-3.0622-1.7947-3.0622-2.0036 0-2.4366 2.1732-2.4366 3.5387v5.2115h-2.7671V94.1746M100.7803 102.9234c1.8385 0 2.4367-1.9448 2.4367-3.4546 0-1.4884-.7021-3.392-2.4767-3.392-1.796 0-2.2916 1.9663-2.2916 3.392 0 1.4696.5157 3.4546 2.3316 3.4546Zm2.5406.7035h-.0413c-.826 1.0345-1.9611 1.4483-3.2627 1.4483-3.2602 0-4.4579-2.6897-4.4579-5.6064 0-2.9355 1.1977-5.5425 4.4579-5.5425 1.3842 0 2.354.4753 3.18 1.4897h.0401v-6.1017h2.7671v15.5127h-2.6832v-1.2ZM112.572 103.0476c.846 0 1.5068-.3724 1.9399-.9518.4543-.5994.5782-1.3643.5782-2.1919h-1.1965c-1.239 0-3.0762.207-3.0762 1.8408 0 .9091.7634 1.3029 1.7546 1.3029Zm-3.2414-8.315c1.0738-.4966 2.5193-.8063 3.6957-.8063 3.2402 0 4.583 1.3455 4.583 4.488v1.3655c0 1.0759.02 1.8822.0413 2.6684.0213.8063.0626 1.5511.124 2.3788h-2.4367c-.1027-.558-.1027-1.2615-.1227-1.5938h-.0425c-.6396 1.18-2.0225 1.842-3.2828 1.842-1.8785 0-3.7144-1.1373-3.7144-3.165 0-1.5925.7634-2.523 1.816-3.0408 1.0537-.5166 2.4153-.6194 3.5717-.6194h1.5269c0-1.7167-.7635-2.296-2.3942-2.296-1.1776 0-2.3528.4551-3.2814 1.1574l-.0839-2.3788ZM121.2462 96.2022h-2.045v-2.0276h2.045v-2.1305l2.7659-.8903v3.0208h2.4567v2.0276h-2.4567v4.9632c0 .9104.2478 1.758 1.3003 1.758.4943 0 .9699-.1028 1.259-.2884l.0826 2.192c-.5782.1655-1.2177.2482-2.0437.2482-2.1676 0-3.364-1.3442-3.364-3.4546v-5.4184M128.4311 104.827h2.7659V94.1746h-2.7659v10.6524Zm0-12.596h2.7659v-2.6471h-2.7659v2.647ZM138.9839 102.9234c2.125 0 2.682-1.9022 2.682-3.6803 0-1.6352-.866-3.1663-2.682-3.1663-1.7972 0-2.6632 1.5725-2.6632 3.1663 0 1.7568.5569 3.6803 2.6632 3.6803Zm0-8.997c3.1575 0 5.573 2.1304 5.573 5.6465 0 3.0621-2.0438 5.5023-5.573 5.5023-3.5105 0-5.5542-2.4402-5.5542-5.5023 0-3.5161 2.4154-5.6466 5.5542-5.6466ZM146.727 94.1746h2.6231v1.4483h.04c.8686-1.2213 2.045-1.6966 3.4893-1.6966 2.5193 0 3.613 1.7781 3.613 4.1782v6.7225h-2.767v-5.688c0-1.3029-.0213-3.0622-1.796-3.0622-2.0023 0-2.4354 2.1732-2.4354 3.5387v5.2115h-2.767V94.1746M167.9538 92.6648h-4.1287v-2.2759h11.1484v2.2759h-4.1287v12.1622h-2.891V92.6648M174.7282 94.1746h2.4567v2.4201h.0413c.124-.9931 1.259-2.6684 2.911-2.6684.2679 0 .5582 0 .846.0828v2.7913c-.2477-.1442-.742-.2257-1.2377-.2257-2.2515 0-2.2515 2.8126-2.2515 4.3437v3.9086h-2.7658V94.1746M192.4646 104.827h-2.622v-1.4471h-.0412c-.8473 1.0332-2.0437 1.6953-3.4892 1.6953-2.518 0-3.6131-1.7793-3.6131-4.1781v-6.7225h2.767v5.688c0 1.3028.0213 3.0608 1.796 3.0608 2.0036 0 2.4354-2.1705 2.4354-3.5361v-5.2127h2.7671v10.6524M201.6332 96.4091c-.846-.2909-1.4656-.4551-2.4768-.4551-.7434 0-1.6307.267-1.6307 1.1787 0 1.6966 4.8095.6194 4.8095 4.4678 0 2.4816-2.2089 3.4747-4.459 3.4747-1.0526 0-2.1264-.1855-3.1364-.4551l.164-2.276c.8673.4351 1.7746.7035 2.7245.7035.7021 0 1.8172-.2684 1.8172-1.3029 0-2.089-4.8095-.662-4.8095-4.5092 0-2.296 2.0011-3.3092 4.17-3.3092 1.3003 0 2.1463.207 3.0136.3938l-.1864 2.089M205.3927 96.2022h-2.045v-2.0276h2.045v-2.1305l2.7658-.8903v3.0208h2.4567v2.0276h-2.4567v4.9632c0 .9104.2478 1.758 1.3003 1.758.4956 0 .9712-.1028 1.259-.2884l.084 2.192c-.5783.1655-1.219.2482-2.0438.2482-2.1689 0-3.3653-1.3442-3.3653-3.4546v-5.4184"/></g></svg>
